<svg width="249" height="69" viewBox="0 0 249 69" fill="none" xmlns="http://www.w3.org/2000/svg">
<path fill-rule="evenodd" clip-rule="evenodd" d="M27.999 19.7068L41.6493 33.2853C43.9365 35.561 43.9365 39.2477 41.6493 41.5234C39.3622 43.7992 35.6528 43.7992 33.3657 41.5234L19.7153 27.945C17.4282 25.6692 17.4282 21.9825 19.7153 19.7068C22.0025 17.4311 25.7119 17.4311 27.999 19.7068Z" fill="#58E3D0"/>
<path fill-rule="evenodd" clip-rule="evenodd" d="M41.6338 41.5234L55.2843 27.945C57.5714 25.6692 57.5714 21.9825 55.2843 19.7068C52.9971 17.4311 49.2877 17.4311 47.0006 19.7068L33.3501 33.2853C31.063 35.561 31.063 39.2477 33.3501 41.5234C35.6372 43.7992 39.3467 43.7992 41.6338 41.5234Z" fill="#70D955"/>
<path fill-rule="evenodd" clip-rule="evenodd" d="M37.5004 43.2303C38.9986 43.2303 40.493 42.6614 41.6347 41.5235L41.7561 41.4022C43.9294 39.1188 43.8952 35.5194 41.6461 33.2854L37.4966 29.1587L33.3472 33.2854C31.098 35.5194 31.0677 39.1188 33.2372 41.4022L33.3586 41.5235C34.5002 42.6576 35.9984 43.2265 37.4928 43.2303H37.5004Z" fill="#52C41A"/>
<path d="M85.8 19.095C85.8 19.095 81.355 18.395 78.485 18.395C73.76 18.395 70.68 20.215 70.68 24.905C70.68 29.525 73.2 30.715 78.205 31.8C82.16 32.57 83.595 33.34 83.595 36.07C83.595 39.43 81.845 40.935 78.415 40.935C75.93 40.935 71.17 40.305 71.17 40.305L70.89 42.545C70.89 42.545 75.685 43.315 78.555 43.315C83.35 43.315 86.29 41.215 86.29 35.86C86.29 31.625 84.155 30.435 79.325 29.35C75.09 28.405 73.41 27.88 73.41 24.73C73.41 22 75.23 20.775 78.66 20.775C80.69 20.775 85.555 21.37 85.555 21.37L85.8 19.095ZM90.4897 43H93.1147V25.5H90.4897V43ZM90.4897 21.545H93.1147V18.5H90.4897V21.545ZM104.901 51.225C109.836 51.225 112.671 49.615 112.671 45.66C112.671 41.495 110.886 40.515 105.916 40.515C101.961 40.515 101.681 40.305 101.681 38.905C101.681 38.45 102.311 36.91 102.311 36.91C102.696 36.98 103.676 37.05 104.026 37.05C108.506 37.05 110.781 35.685 110.781 31.135C110.781 29.28 110.291 28.3 109.626 27.635L112.951 27.705V25.465L107.771 25.605C107.771 25.605 105.881 25.15 104.131 25.15C100.246 25.15 97.586 26.83 97.586 31.135C97.586 34.355 98.881 35.755 100.351 36.42C100.351 36.42 99.161 38.52 99.161 39.185C99.161 40.27 99.511 41.18 100.141 41.6C98.321 42.965 97.376 43.91 97.376 45.94C97.376 50 99.371 51.225 104.901 51.225ZM105.706 42.825C108.891 42.825 110.011 43.105 110.011 45.765C110.011 48.075 108.436 49.02 104.936 49.02C100.981 49.02 99.966 48.145 99.966 45.73C99.966 44.365 100.456 43.735 101.926 42.65C101.926 42.65 104.481 42.825 105.706 42.825ZM104.131 34.95C101.401 34.95 100.211 33.9 100.211 31.135C100.211 28.37 101.401 27.285 104.131 27.285C107.071 27.285 108.156 28.37 108.156 31.135C108.156 33.9 107.071 34.95 104.131 34.95ZM118.749 43V28.79C118.749 28.79 121.164 27.495 123.684 27.495C126.939 27.495 127.464 29.21 127.464 33.83V43H130.054V33.76C130.054 27.53 128.969 25.15 124.139 25.15C121.549 25.15 118.714 26.725 118.714 26.725V25.5H116.124V43H118.749ZM143.069 43H145.764V18.78H143.069V43ZM153.852 43V28.79C153.852 28.79 156.267 27.495 158.787 27.495C162.042 27.495 162.567 29.21 162.567 33.83V43H165.157V33.76C165.157 27.53 164.072 25.15 159.242 25.15C156.652 25.15 153.817 26.725 153.817 26.725V25.5H151.227V43H153.852ZM176.036 43H178.696L180.446 36.77H190.806L192.556 43H195.216L188.566 18.78H182.686L176.036 43ZM184.716 21.09H186.536L190.211 34.355H181.041L184.716 21.09ZM198.566 50.77H201.191V42.965C201.681 43.07 203.466 43.35 205.111 43.35C210.501 43.35 212.741 40.9 212.741 34.04C212.741 27.845 210.816 25.15 206.406 25.15C203.816 25.15 201.156 26.76 201.156 26.76V25.5H198.566V50.77ZM206.021 27.495C208.576 27.495 210.081 29.245 210.081 34.04C210.081 39.08 208.821 41.075 204.971 41.075C203.466 41.075 201.646 40.76 201.191 40.69V28.895C201.191 28.895 203.641 27.495 206.021 27.495ZM217.023 50.77H219.648V42.965C220.138 43.07 221.923 43.35 223.568 43.35C228.958 43.35 231.198 40.9 231.198 34.04C231.198 27.845 229.273 25.15 224.863 25.15C222.273 25.15 219.613 26.76 219.613 26.76V25.5H217.023V50.77ZM224.478 27.495C227.033 27.495 228.538 29.245 228.538 34.04C228.538 39.08 227.278 41.075 223.428 41.075C221.923 41.075 220.103 40.76 219.648 40.69V28.895C219.648 28.895 222.098 27.495 224.478 27.495Z" fill="black"/>
</svg>
